<?xml version="1.0" encoding="UTF-8"?>
<svg width="147px" height="40px" viewBox="0 0 147 40" version="1.1" xmlns="http://www.w3.org/2000/svg" xmlns:xlink="http://www.w3.org/1999/xlink">
    <title>logo</title>
    <g id="logo" stroke="none" stroke-width="1" fill="none" fill-rule="evenodd">
        <g id="Group-2" transform="translate(2.000000, 2.000000)">
            <path d="M7.86350812,18.7649577 C8.23717022,23.6732845 12.0910165,27.6107045 16.96305,28.1130112 L17.2347505,28.1373674 L17.2347505,34.2824205 C17.2347505,35.2303726 16.4654149,36 15.5160035,36 C15.4158965,36 15.316665,35.991828 15.2188929,35.9749003 C7.47271135,34.6370269 1.36151377,28.5226189 0.0245160035,20.7743944 C0.00992314427,20.6798327 0,20.5829361 0,20.4834128 C0,19.5817492 0.69590573,18.8423407 1.57899746,18.770654 L1.71991439,18.7649577 L7.86350812,18.7649577 Z M34.3177352,18.7649577 C35.2659792,18.7649577 36.036774,19.5342932 36.036774,20.4834128 C36.036774,20.5829361 36.0268509,20.6798327 36.0116743,20.7743944 C34.6752602,28.5226189 28.5634789,34.6370269 20.8170055,35.9749003 C20.720109,35.991828 20.6214612,36 20.5207705,36 C19.6179979,36 18.8790607,35.3054113 18.8074239,34.4232019 L18.8017317,34.2824205 L18.8017317,28.1373674 C23.7106316,27.7631322 27.6469367,23.9081502 28.1480978,19.036628 L28.1723903,18.7649577 L34.3177352,18.7649577 Z M20.5207705,0 C20.6205857,0 20.7198171,0.00904757272 20.8172974,0.0250997179 C28.5634789,1.36355677 34.6752602,7.47738107 36.0119661,15.2258975 C36.0268509,15.3201673 36.036774,15.4170639 36.036774,15.5162954 C36.036774,16.4654149 35.2653955,17.2350423 34.3168596,17.2350423 L28.1732659,17.2350423 C27.7923923,12.2355287 23.8015371,8.24408989 18.8017317,7.86292441 L18.8017317,1.71757953 C18.8017317,0.769627396 19.5713591,0 20.5207705,0 Z" id="Shape" fill="#FF7000"></path>
            <path d="M118.38457,9.16519117 C119.428544,9.16519117 120.27814,9.97830528 120.27814,11.021111 C120.27814,11.3010437 120.204806,11.6530235 120.142133,11.8706503 L120.112073,11.967312 L113.821092,27.0604144 C112.352758,30.5837144 110.789571,31.886273 108.016052,31.886273 C107.021578,31.886273 106.259962,31.7543594 105.523972,31.4911704 L105.279307,31.3985796 C104.691215,31.203619 104.042125,30.7135908 104.042125,29.7676817 C104.042125,28.7896683 104.790738,28.1379512 105.640043,28.1379512 C105.855628,28.1379512 106.014917,28.1668775 106.155354,28.2054458 L106.356552,28.2681195 L106.356552,28.2681195 C106.813017,28.3979959 107.169666,28.4963518 107.725946,28.4963518 C108.838608,28.4963518 109.456075,28.0556817 110.073556,26.8648058 L110.171126,26.6704932 L110.301002,26.3120926 L103.909622,12.0323961 C103.780913,11.740539 103.682557,11.3476992 103.682557,11.086487 C103.682557,9.97830528 104.529234,9.16519117 105.640043,9.16519117 C106.591566,9.16519117 107.136161,9.68483834 107.496956,10.5058717 L107.562506,10.6632941 L112.191945,22.107598 L116.49246,10.6632941 C116.818757,9.84842884 117.373285,9.16519117 118.38457,9.16519117 Z M64.9137076,9.00029186 C70.3927425,9.00029186 73.0965074,13.4998541 73.0965074,17.4764082 C73.0965074,18.5860492 72.2504135,19.3676428 71.237669,19.3676428 L60.4488763,19.3676428 C60.87061,22.1723903 62.8602004,23.7355774 65.4049032,23.7355774 C67.0664462,23.7355774 68.3707559,23.1504037 69.4786458,22.2360152 C69.7719623,22.0080747 70.0331744,21.8779064 70.4878879,21.8779064 C71.3692966,21.8779064 72.055161,22.5626034 72.055161,23.4755326 C72.055161,23.965269 71.8260531,24.3884619 71.5324448,24.6817784 C69.966631,26.0841522 68.0135227,26.9649771 65.3371923,26.9649771 C60.4354253,26.9649771 56.639356,23.4701274 56.5076693,18.3095625 L56.5041346,17.9661446 C56.5041346,13.0448487 59.9915361,9.00029186 64.9137076,9.00029186 Z M128.313844,9.13075202 C130.888316,9.13075202 132.813698,9.81515712 134.019652,11.0543827 C135.289814,12.294192 135.877615,14.1182994 135.877615,16.3688102 L135.877615,24.8446347 C135.877615,25.921004 135.029478,26.7355774 133.955151,26.7355774 C132.813698,26.7355774 132.030937,25.9528164 132.030937,25.0746182 L132.030937,24.4202743 C130.856212,25.8226481 129.065376,26.9319973 126.423485,26.9319973 C123.268336,26.9319973 120.45827,25.1580851 120.332169,21.8510682 L120.327756,21.5513182 C120.327756,17.8348088 123.228232,16.0104096 127.433311,16.0104096 C129.357233,16.0104096 130.726627,16.3022668 132.065376,16.726919 L132.065376,16.3022668 C132.065376,13.8582547 130.563187,12.5554042 127.792879,12.5554042 C126.294776,12.5554042 125.054091,12.8157408 123.977722,13.2386419 C123.748614,13.3048935 123.55628,13.3367059 123.358401,13.3367059 C122.446931,13.3367059 121.697441,12.6204884 121.697441,11.7075591 C121.697441,10.9898823 122.185427,10.3717288 122.773519,10.1414534 C124.399747,9.52184065 126.064792,9.13075202 128.313844,9.13075202 Z M95.7212764,4.64607452 C96.5106589,4.64607452 97.1897399,5.11677974 97.5000002,5.78981124 L97.5570581,5.9270357 C97.6168158,6.08704641 97.6552315,6.25444474 97.6707045,6.42750693 L97.6784707,6.60239323 L97.6784707,9.36015177 L100.776535,9.36015177 C101.720109,9.36015177 102.50287,10.109641 102.50287,11.0543827 C102.50287,11.9535509 101.796428,12.6749234 100.916787,12.7448127 L100.776535,12.7503648 L97.6784707,12.7503648 L97.6784707,21.1932095 C97.6784707,22.7260434 98.4600642,23.3441969 99.7988131,23.3441969 C99.950968,23.3441969 100.095599,23.3333982 100.225725,23.3189999 L100.464564,23.287537 L100.464564,23.287537 L100.723135,23.2503414 C100.743926,23.2482083 100.761812,23.2470085 100.776535,23.2470085 C101.655025,23.2470085 102.437786,23.965269 102.437786,24.8779064 C102.437786,25.5944158 101.950968,26.1822162 101.396439,26.4104485 C100.547427,26.703765 99.7325615,26.8654538 98.689464,26.8654538 C95.8550149,26.8654538 93.8311054,25.6528464 93.738503,22.0739564 L93.7351882,21.8142815 L93.7351882,12.7503648 L93.0808444,12.7503648 C92.1361027,12.7503648 91.3892402,12.0008756 91.3892402,11.0543827 C91.3892402,10.1568781 92.0632836,9.43558882 92.9406859,9.36570366 L93.0808444,9.36015177 L93.7351882,9.36015177 L93.7351882,6.60239323 C93.7351882,6.43822356 93.7570228,6.27914316 93.7952743,6.12687579 L93.8539741,5.92849499 C94.1499173,5.2078996 94.8775173,4.64607452 95.7212764,4.64607452 Z M140.498589,4.64228038 C141.70656,4.64228038 142.416979,5.69694973 142.479067,6.41955997 L142.48351,6.52038136 L142.48351,24.8598113 C142.443234,25.929176 141.579045,26.7355774 140.498589,26.7355774 C139.470032,26.7355774 138.622836,25.9641211 138.547944,24.9291424 L138.542563,24.7795505 L138.542563,6.59801537 C138.542563,5.69063138 139.440607,4.64228038 140.498589,4.64228038 Z M84.3225022,9.00029186 C88.1169628,9.00029186 90.3528978,11.4970052 90.4483192,15.3283686 L90.4515031,15.5857574 L90.4515031,24.7795505 C90.4515031,25.8888997 89.6036579,26.7355774 88.4946006,26.7355774 C87.4367908,26.7355774 86.5845431,25.9641211 86.5092516,24.9291424 L86.5038428,24.7795505 L86.5038428,16.792295 C86.5038428,14.1197587 85.1703473,12.5883841 82.8203133,12.5883841 C80.6088495,12.5883841 79.0409401,14.0892794 78.9479461,16.616843 L78.9435743,16.8567954 L78.9435743,24.7795505 C78.9435743,25.8888997 78.0609982,26.7355774 76.9545676,26.7355774 C75.9271241,26.7355774 75.0775864,25.9641211 75.0024785,24.9291424 L74.9970814,24.7795505 L74.9970814,11.1527386 C74.9970814,10.0448487 75.8452184,9.16519117 76.9545676,9.16519117 C78.0107059,9.16519117 78.8628776,9.96669733 78.9381656,11.0031385 L78.9435743,11.1527386 L78.9435743,12.0008756 C80.0514642,10.4017901 81.6476311,9.00029186 84.3225022,9.00029186 Z M53.8718747,9.36015177 C54.9485358,9.36015177 55.7610663,10.0118689 55.7610663,10.9245063 L55.7610663,11.021111 C55.7610663,11.709748 55.5432921,12.1776681 55.0535661,12.7526358 L45.721471,23.3441969 L54.1987547,23.3441969 C55.1111003,23.3441969 55.8296527,24.0618737 55.8296527,24.9750949 C55.8296527,25.855628 55.1111003,26.5738885 54.1987547,26.5738885 L42.5270941,26.5738885 C41.4661932,26.5738885 40.6749684,25.9458118 40.6078412,25.0924214 L40.6078412,24.7436521 C40.6446152,24.0855142 40.9113727,23.6217531 41.4854558,23.0202354 L50.6433505,12.5883841 L42.5270941,12.5883841 C41.6127055,12.5883841 40.8961961,11.8707073 40.8961961,10.9898823 C40.8961961,10.0766612 41.6127055,9.36015177 42.5270941,9.36015177 L53.8718747,9.36015177 Z M128.217239,18.5197976 C125.756036,18.5197976 124.272265,19.5275705 124.179099,21.2169701 L124.174433,21.4547135 C124.174433,23.1174239 125.638973,24.0618737 127.532834,24.0618737 C130.139702,24.0618737 132.131919,22.5626034 132.131919,20.3786361 L132.131919,19.205662 C131.117716,18.8139897 129.780134,18.5197976 128.217239,18.5197976 Z M64.8824788,12.2273567 C62.4696955,12.2273567 60.7742971,14.0861952 60.4161883,16.7601907 L69.2489542,16.7601907 C68.9900769,14.2178227 67.4890554,12.2273567 64.8824788,12.2273567 Z" id="Shape" fill="#2D2E2E"></path>
            <path d="M17.2347505,1.71757953 L17.2347505,7.86292441 C12.234945,8.24408989 8.24408989,12.2355287 7.86379998,17.2350423 L1.71903882,17.2350423 C0.770794824,17.2350423 -7.60472766e-14,16.4654149 -7.60472766e-14,15.5162954 C-7.60472766e-14,15.4170639 0.00992314427,15.3201673 0.0250997179,15.2258975 C1.36151377,7.47738107 7.47271135,1.36355677 15.2194766,0.0250997179 C15.3160813,0.00904757272 15.4156046,8.64173598e-15 15.5160035,8.64173598e-15 C16.4657068,8.64173598e-15 17.2347505,0.769627396 17.2347505,1.71757953" id="Fill-1" fill="#42C200"></path>
        </g>
    </g>
</svg>